# xmcd
#
# Track frame offsets:
#	150
#	5275
#	10345
#	13217
#	16027
#	21122
#	26172
#	28977
#	31745
#	36775
#	41797
#	44565
#	47337
#	52317
#	57320
#	60007
#	62682
#	67807
#	72810
#	75535
#	78222
#	83237
#	88147
#	90940
#	93702
#	98772
#	103800
#	106515
#	109230
#	114132
#	119022
#	121645
#	124272
#	129222
#	134212
#	136955
#	139697
#	144747
#	149770
#	152512
#	155270
#	160157
#	165090
#	167810
#	170512
#	175500
#	180510
#	183257
#	186027
#	190995
#	195897
#	198557
#	201182
#	206127
#	211082
#	213732
#	216387
#	221305
#	226255
#	228905
#
# Disc length: 3083 seconds
#
# Revision: 1
# Processed by: cddbd v1.5.1PL0 Copyright (c) Steve Scherf et al.
# Submitted via: audiograbber 1.82.00
#
DISCID=360c093c
DTITLE=TM Century - MegaMusic - 507-Country
DYEAR=1900
DGENRE=
TTITLE0=8726-Shake A Leg - Full Mix
TTITLE1=8726-Shake A Leg - Rhythm Mix
TTITLE2=8726-Shake A Leg - Full Mix-Edit
TTITLE3=8726-Shake A Leg - Rhythm Mix-Edit
TTITLE4=8727-I Told You So - Full Mix
TTITLE5=8727-I Told You So - Rhythm Mix
TTITLE6=8727-I Told You So - Full Mix-Edit
TTITLE7=8727-I Told You So - Rhythm Mix-Edit
TTITLE8=8728-Spring Rain - Full Mix
TTITLE9=8728-Spring Rain - Rhythm Mix
TTITLE10=8728-Spring Rain - Full Mix-Edit
TTITLE11=8728-Spring Rain - Rhythm Mix-Edit
TTITLE12=8729-Gimme A B**r - Full Mix
TTITLE13=8729-Gimme A B**r - Rhythm Mix
TTITLE14=8729-Gimme A B**r - Full Mix-Edit
TTITLE15=8729-Gimme A B**r - Rhythm Mix-Edit
TTITLE16=8730-Rooster In The Hen House - Full Mix
TTITLE17=8730-Rooster In The Hen House - Rhythm Mix
TTITLE18=8730-Rooster In The Hen House - Full Mix-Edit
TTITLE19=8730-Rooster In The Hen House - Rhythm Mix-Edit
TTITLE20=8731-Texas Rails - Full Mix
TTITLE21=8731-Texas Rails - Rhythm Mix
TTITLE22=8731-Texas Rails - Full Mix-Edit
TTITLE23=8731-Texas Rails - Rhythm Mix-Edit
TTITLE24=8732-Hang Glider - Full Mix
TTITLE25=8732-Hang Glider - Rhythm Mix
TTITLE26=8732-Hang Glider - Full Mix-Edit
TTITLE27=8732-Hang Glider - Rhythm Mix-Edit
TTITLE28=8733-Hey Ride - Full Mix
TTITLE29=8733-Hey Ride - Rhythm Mix
TTITLE30=8733-Hey Ride - Full Mix-Edit
TTITLE31=8733-Hey Ride - Rhythm Mix-Edit
TTITLE32=8734-Low Flyin' Guitars - Full Mix
TTITLE33=8734-Low Flyin' Guitars - Rhythm Mix
TTITLE34=8734-Low Flyin' Guitars - Full Mix-Edit
TTITLE35=8734-Low Flyin' Guitars - Rhythm Mix-Edit
TTITLE36=8735-Sunday Picnic - Full Mix
TTITLE37=8735-Sunday Picnic - Rhythm Mix
TTITLE38=8735-Sunday Picnic - Full Mix-Edit
TTITLE39=8735-Sunday Picnic - Rhythm Mix-Edit
TTITLE40=8736-Retirement - Full Mix
TTITLE41=8736-Retirement - Rhythm Mix
TTITLE42=8736-Retirement - Full Mix-Edit
TTITLE43=8736-Retirement - Rhythm Mix-Edit
TTITLE44=8737-Simply Saturday - Full Mix
TTITLE45=8737-Simply Saturday - Rhythm Mix
TTITLE46=8737-Simply Saturday - Full Mix-Edit
TTITLE47=8737-Simply Saturday - Rhythm Mix-Edit
TTITLE48=8738-Day Dream - Full Mix
TTITLE49=8738-Day Dream - Rhythm Mix
TTITLE50=8738-Day Dream - Full Mix-Edit
TTITLE51=8738-Day Dream - Rhythm Mix-Edit
TTITLE52=8739-Sadly Spoken - Full Mix
TTITLE53=8739-Sadly Spoken - Rhythm Mix
TTITLE54=8739-Sadly Spoken - Full Mix-Edit
TTITLE55=8739-Sadly Spoken - Rhythm Mix-Edit
TTITLE56=8740-Impending Dawn - Full Mix
TTITLE57=8740-Impending Dawn - Rhythm Mix
TTITLE58=8740-Impending Dawn - Full Mix-Edit
TTITLE59=8740-Impending Dawn - Rhythm Mix-Edit
EXTD=
EXTT0=
EXTT1=
EXTT2=
EXTT3=
EXTT4=
EXTT5=
EXTT6=
EXTT7=
EXTT8=
EXTT9=
EXTT10=
EXTT11=
EXTT12=
EXTT13=
EXTT14=
EXTT15=
EXTT16=
EXTT17=
EXTT18=
EXTT19=
EXTT20=
EXTT21=
EXTT22=
EXTT23=
EXTT24=
EXTT25=
EXTT26=
EXTT27=
EXTT28=
EXTT29=
EXTT30=
EXTT31=
EXTT32=
EXTT33=
EXTT34=
EXTT35=
EXTT36=
EXTT37=
EXTT38=
EXTT39=
EXTT40=
EXTT41=
EXTT42=
EXTT43=
EXTT44=
EXTT45=
EXTT46=
EXTT47=
EXTT48=
EXTT49=
EXTT50=
EXTT51=
EXTT52=
EXTT53=
EXTT54=
EXTT55=
EXTT56=
EXTT57=
EXTT58=
EXTT59=
PLAYORDER=
